#Comment line ignore any data following # character 
#Hierarchical Translation and Rotation (.htr) file 
[Header]	
#Header keywords are followed by a single value 
FileType HTR		#Single word string
DataType HTRS		#Translation followed by rotation and scale data
FileVersion 1		#integer
NumSegments 64		#integer
NumFrames 3		#integer
DataFrameRate 30		#integer, data frame rate in this file
EulerRotationOrder ZYX
CalibrationUnits mm
RotationUnits Degrees
GlobalAxisofGravity Y
BoneLengthAxis Y
ScaleFactor 1.00
[SegmentNames&Hierarchy]
#CHILD	PARENT
Pinger_Root GLOBAL
Pelvis Pinger_Root
L_Hip Pelvis
R_Hip Pelvis
Rear_Leg01 Pelvis
Spine1 Pelvis
L_Leg01 L_Hip
L_Leg02 L_Leg01
L_Leg03 L_Leg02
L_Foot L_Leg03
L_Toe1_01 L_Foot
L_Toe2_01 L_Foot
L_Toe3_01 L_Foot
planeAlignerLeft L_Foot
L_Toe1_02 L_Toe1_01
L_Toe1_03 L_Toe1_02
L_Toe2_02 L_Toe2_01
L_Toe2_03 L_Toe2_02
L_Toe3_02 L_Toe3_01
L_Toe3_03 L_Toe3_02
planeLockWeightLeft planeAlignerLeft
R_Leg01 R_Hip
R_Leg02 R_Leg01
R_Leg03 R_Leg02
R_Foot R_Leg03
planeAlignerRight R_Foot
R_Toe1_01 R_Foot
R_Toe2_01 R_Foot
R_Toe3_01 R_Foot
planeLockWeightRight planeAlignerRight
R_Toe1_02 R_Toe1_01
R_Toe1_03 R_Toe1_02
R_Toe2_02 R_Toe2_01
R_Toe2_03 R_Toe2_02
R_Toe3_02 R_Toe3_01
R_Toe3_03 R_Toe3_02
Rear_Leg02 Rear_Leg01
Rear_Leg03 Rear_Leg02
Rear_Leg04 Rear_Leg03
Rear_Foot Rear_Leg04
planeAlignerCenter Rear_Foot
Rear_Toe1_01 Rear_Foot
Rear_Toe2_01 Rear_Foot
Rear_Toe3_01 Rear_Foot
planeLockWeightCenter planeAlignerCenter
Rear_Toe1_02 Rear_Toe1_01
Rear_Toe1_03 Rear_Toe1_02
Rear_Toe2_02 Rear_Toe2_01
Rear_Toe2_03 Rear_Toe2_02
Rear_Toe3_02 Rear_Toe3_01
Rear_Toe3_03 Rear_Toe3_02
Back_Bone Spine1
Head Spine1
Motor_Bone Back_Bone
Ping_Mechanism Back_Bone
BN_LookIK Head
bottomMouth Head
L_Mouth01 Head
L_mouthFront Head
mouthGun Head
R_Mouth01 Head
R_mouthFront Head
TopMouth Head
weapon_bone Head
[BasePosition]
#SegmentName Tx, Ty, Tz, Rx, Ry, Rz, BoneLength
Pinger_Root 0.000000 0.000000 0.000000 -90.000000 0.000000 0.000000 10.000000 
Pelvis 0.000000 0.000000 0.000000 0.000000 0.000000 0.000000 10.000000 
L_Hip 0.000000 0.000000 0.000000 0.000000 0.000000 0.000000 10.000000 
R_Hip 0.000000 0.000000 0.000000 0.000000 0.000000 0.000000 10.000000 
Rear_Leg01 0.000000 0.000000 0.000000 0.000000 0.000000 0.000000 10.000000 
Spine1 0.000000 0.000000 0.000000 0.000000 0.000000 0.000000 10.000000 
L_Leg01 0.000000 0.000000 0.000000 0.000000 0.000000 0.000000 10.000000 
L_Leg02 0.000000 0.000000 0.000000 0.000000 0.000000 0.000000 10.000000 
L_Leg03 0.000000 0.000000 0.000000 0.000000 0.000000 0.000000 10.000000 
L_Foot 0.000000 0.000000 0.000000 0.000000 0.000000 0.000000 10.000000 
L_Toe1_01 0.000000 0.000000 0.000000 0.000000 0.000000 0.000000 10.000000 
L_Toe2_01 0.000000 0.000000 0.000000 0.000000 0.000000 0.000000 10.000000 
L_Toe3_01 0.000000 0.000000 0.000000 0.000000 0.000000 0.000000 10.000000 
planeAlignerLeft 0.000000 0.000000 0.000000 0.000000 0.000000 0.000000 10.000000 
L_Toe1_02 0.000000 0.000000 0.000000 0.000000 0.000000 0.000000 10.000000 
L_Toe1_03 0.000000 0.000000 0.000000 0.000000 0.000000 0.000000 10.000000 
L_Toe2_02 0.000000 0.000000 0.000000 0.000000 0.000000 0.000000 10.000000 
L_Toe2_03 0.000000 0.000000 0.000000 0.000000 0.000000 0.000000 10.000000 
L_Toe3_02 0.000000 0.000000 0.000000 0.000000 0.000000 0.000000 10.000000 
L_Toe3_03 0.000000 0.000000 0.000000 0.000000 0.000000 0.000000 10.000000 
planeLockWeightLeft 0.000000 0.000000 0.000000 0.000000 0.000000 0.000000 10.000000 
R_Leg01 0.000000 0.000000 0.000000 0.000000 0.000000 0.000000 10.000000 
R_Leg02 0.000000 0.000000 0.000000 0.000000 0.000000 0.000000 10.000000 
R_Leg03 0.000000 0.000000 0.000000 0.000000 0.000000 0.000000 10.000000 
R_Foot 0.000000 0.000000 0.000000 0.000000 0.000000 0.000000 10.000000 
planeAlignerRight 0.000000 0.000000 0.000000 0.000000 0.000000 0.000000 10.000000 
R_Toe1_01 0.000000 0.000000 0.000000 0.000000 0.000000 0.000000 10.000000 
R_Toe2_01 0.000000 0.000000 0.000000 0.000000 0.000000 0.000000 10.000000 
R_Toe3_01 0.000000 0.000000 0.000000 0.000000 0.000000 0.000000 10.000000 
planeLockWeightRight 0.000000 0.000000 0.000000 0.000000 0.000000 0.000000 10.000000 
R_Toe1_02 0.000000 0.000000 0.000000 0.000000 0.000000 0.000000 10.000000 
R_Toe1_03 0.000000 0.000000 0.000000 0.000000 0.000000 0.000000 10.000000 
R_Toe2_02 0.000000 0.000000 0.000000 0.000000 0.000000 0.000000 10.000000 
R_Toe2_03 0.000000 0.000000 0.000000 0.000000 0.000000 0.000000 10.000000 
R_Toe3_02 0.000000 0.000000 0.000000 0.000000 0.000000 0.000000 10.000000 
R_Toe3_03 0.000000 0.000000 0.000000 0.000000 0.000000 0.000000 10.000000 
Rear_Leg02 0.000000 0.000000 0.000000 0.000000 0.000000 0.000000 10.000000 
Rear_Leg03 0.000000 0.000000 0.000000 0.000000 0.000000 0.000000 10.000000 
Rear_Leg04 0.000000 0.000000 0.000000 0.000000 0.000000 0.000000 10.000000 
Rear_Foot 0.000000 0.000000 0.000000 0.000000 0.000000 0.000000 10.000000 
planeAlignerCenter 0.000000 0.000000 0.000000 0.000000 0.000000 0.000000 10.000000 
Rear_Toe1_01 0.000000 0.000000 0.000000 0.000000 0.000000 0.000000 10.000000 
Rear_Toe2_01 0.000000 0.000000 0.000000 0.000000 0.000000 0.000000 10.000000 
Rear_Toe3_01 0.000000 0.000000 0.000000 0.000000 0.000000 0.000000 10.000000 
planeLockWeightCenter 0.000000 0.000000 0.000000 0.000000 0.000000 0.000000 10.000000 
Rear_Toe1_02 0.000000 0.000000 0.000000 0.000000 0.000000 0.000000 10.000000 
Rear_Toe1_03 0.000000 0.000000 0.000000 0.000000 0.000000 0.000000 10.000000 
Rear_Toe2_02 0.000000 0.000000 0.000000 0.000000 0.000000 0.000000 10.000000 
Rear_Toe2_03 0.000000 0.000000 0.000000 0.000000 0.000000 0.000000 10.000000 
Rear_Toe3_02 0.000000 0.000000 0.000000 0.000000 0.000000 0.000000 10.000000 
Rear_Toe3_03 0.000000 0.000000 0.000000 0.000000 0.000000 0.000000 10.000000 
Back_Bone 0.000000 0.000000 0.000000 0.000000 0.000000 0.000000 10.000000 
Head 0.000000 0.000000 0.000000 0.000000 0.000000 0.000000 10.000000 
Motor_Bone 0.000000 0.000000 0.000000 0.000000 0.000000 0.000000 10.000000 
Ping_Mechanism 0.000000 0.000000 0.000000 0.000000 0.000000 0.000000 10.000000 
BN_LookIK 0.000000 0.000000 0.000000 0.000000 0.000000 0.000000 10.000000 
bottomMouth 0.000000 0.000000 0.000000 0.000000 0.000000 0.000000 10.000000 
L_Mouth01 0.000000 0.000000 0.000000 0.000000 0.000000 0.000000 10.000000 
L_mouthFront 0.000000 0.000000 0.000000 0.000000 0.000000 0.000000 10.000000 
mouthGun 0.000000 0.000000 0.000000 0.000000 0.000000 0.000000 10.000000 
R_Mouth01 0.000000 0.000000 0.000000 0.000000 0.000000 0.000000 10.000000 
R_mouthFront 0.000000 0.000000 0.000000 0.000000 0.000000 0.000000 10.000000 
TopMouth 0.000000 0.000000 0.000000 0.000000 0.000000 0.000000 10.000000 
weapon_bone 0.000000 0.000000 0.000000 0.000000 0.000000 0.000000 10.000000 
#Beginning of Data. Separated by tabs
#Fr	Tx	Ty	Tz	Rx	Ry	Rz	SF
[Pinger_Root]
21 0.000000 0.000000 0.000000 -0.000075 -0.000000 -0.000020 0.000000
22 0.000000 0.000000 0.000000 -0.000075 -0.000000 -0.000020 0.000000
23 0.000000 0.000000 0.000000 -0.000075 -0.000000 -0.000020 0.000000
[Pelvis]
21 -27.121229 1162.568481 3397.029541 -127.643066 -80.745598 128.005615 3590.558594
22 -7.005600 1162.568359 3401.709229 -123.103386 -80.214783 123.406387 3594.890869
23 6.735816 1162.568359 3414.633057 -115.970039 -79.629082 116.185402 3607.122070
[L_Hip]
21 5.766392 125.831482 872.656799 -121.855194 -74.309326 30.031727 881.701050
22 5.766392 125.831482 872.656799 -121.855164 -74.309326 30.031721 881.701050
23 5.766392 125.831482 872.656799 -121.855164 -74.309326 30.031721 881.701050
[R_Hip]
21 5.765438 125.836372 -872.654907 -62.006908 72.295975 26.002958 881.699829
22 5.765438 125.836372 -872.654907 -62.006939 72.295982 26.002953 881.699829
23 5.765438 125.836372 -872.654907 -62.006905 72.295952 26.002932 881.699829
[Rear_Leg01]
21 -192.298416 -925.602966 -0.001907 171.177536 -4.581769 -120.674606 945.367432
22 -192.298416 -925.602966 -0.001907 171.243378 -4.614775 -121.757492 945.367432
23 -192.298416 -925.602966 -0.001907 171.865051 -4.319605 -123.270370 945.367432
[Spine1]
21 290.604584 5.007505 0.000477 -0.127799 1.532883 15.978239 290.647736
22 290.604584 5.007505 0.000477 -0.120378 2.013357 15.115200 290.647736
23 290.604584 5.007505 0.000477 -0.102141 2.161856 13.973791 290.647736
[L_Leg01]
21 761.932007 -0.002384 -0.069261 66.279388 -51.086853 -56.745094 761.932068
22 761.932007 -0.002384 -0.069261 65.588623 -51.134789 -56.286419 761.932068
23 761.932007 -0.002384 -0.069261 65.034981 -50.910255 -56.820534 761.932068
[L_Leg02]
21 1441.140503 -0.000954 -0.000715 7.140584 2.095781 -144.952393 1441.140503
22 1441.140503 -0.000954 -0.000715 7.047939 2.035527 -144.002777 1441.140503
23 1441.140503 -0.000954 -0.000715 6.843760 1.911361 -141.928986 1441.140503
[L_Leg03]
21 1686.963989 -0.000715 -0.000954 -0.103875 0.061791 138.198700 1686.963989
22 1686.963989 -0.000715 -0.000954 -0.100790 0.060184 137.994888 1686.963989
23 1686.963989 -0.000715 -0.000954 -0.101054 0.059741 137.490753 1686.963989
[L_Foot]
21 3041.570068 -30.715107 11.297464 2.165626 23.195169 49.692516 3041.746094
22 3041.570068 -30.715107 11.297464 1.764362 23.257164 49.341885 3041.746094
23 3041.570068 -30.715107 11.297464 1.532315 23.417269 48.844135 3041.746094
[L_Toe1_01]
21 -188.216690 -224.732346 -21.137953 94.536530 -11.874323 -178.539001 293.899567
22 -188.216690 -224.732346 -21.137953 94.536530 -11.874326 -178.539001 293.899567
23 -188.216690 -224.732346 -21.137953 94.536530 -11.874326 -178.539001 293.899567
[L_Toe2_01]
21 200.746536 -219.926590 148.838394 -89.340950 -33.859619 -48.515850 332.896027
22 200.746536 -219.926590 148.838394 -89.341583 -33.859734 -48.515194 332.896027
23 200.746536 -219.926590 148.838394 -89.342239 -33.859863 -48.514549 332.896027
[L_Toe3_01]
21 188.832520 -219.859131 -191.078659 -97.072182 10.783463 -57.864502 347.140900
22 188.832520 -219.859131 -191.078659 -97.071877 10.783357 -57.863777 347.140900
23 188.832520 -219.859131 -191.078659 -97.071564 10.783251 -57.863049 347.140900
[planeAlignerLeft]
21 0.812531 -811.448792 -0.314951 0.000000 -90.000000 -90.001900 811.449280
22 0.812531 -811.448792 -0.314951 0.000000 -90.000000 -90.001900 811.449280
23 0.812531 -811.448792 -0.314951 0.000000 -90.000000 -90.001900 811.449280
[L_Toe1_02]
21 413.761139 0.000477 0.000000 0.000203 -25.410625 -0.000182 413.761139
22 413.761139 0.000477 0.000000 0.000203 -25.410625 -0.000182 413.761139
23 413.761139 0.000477 0.000000 0.000203 -25.410625 -0.000182 413.761139
[L_Toe1_03]
21 464.317322 0.000358 -0.000089 0.004342 58.635960 0.004342 464.317322
22 464.317322 0.000358 -0.000089 0.004342 58.635971 0.004342 464.317322
23 464.317322 0.000358 -0.000089 0.004342 58.635960 0.004342 464.317322
[L_Toe2_02]
21 342.235809 -0.000477 0.000238 0.001191 -70.156387 0.001191 342.235809
22 342.235809 -0.000477 0.000238 0.001191 -70.156403 0.001191 342.235809
23 342.235809 -0.000477 0.000238 0.001191 -70.156403 0.001191 342.235809
[L_Toe2_03]
21 420.210846 -0.000715 0.000000 0.013353 79.915680 0.013353 420.210846
22 420.210846 -0.000715 0.000000 0.013353 79.915741 0.013353 420.210846
23 420.210846 -0.000715 0.000000 0.013353 79.915703 0.013353 420.210846
[L_Toe3_02]
21 329.270111 0.000954 0.000000 0.001176 -83.130508 0.001176 329.270111
22 329.270111 0.000954 0.000000 0.001176 -83.130447 0.001176 329.270111
23 329.270111 0.000954 0.000000 0.001176 -83.130417 0.001176 329.270111
[L_Toe3_03]
21 439.137451 -0.001907 0.000954 179.990875 65.540871 179.998047 439.137451
22 439.137451 -0.001907 0.000954 179.990875 65.540901 179.998047 439.137451
23 439.137451 -0.001907 0.000954 179.990875 65.540901 179.998047 439.137451
[planeLockWeightLeft]
21 -0.000954 0.000238 -0.000305 -0.011826 -0.004376 0.005620 0.001029
22 -0.000954 0.000238 -0.000305 -0.011826 -0.004376 0.005620 0.001029
23 -0.000954 0.000238 -0.000305 -0.011826 -0.004376 0.005620 0.001029
[R_Leg01]
21 761.455627 -0.001907 -0.000358 96.701843 -28.036364 82.310989 761.455688
22 761.455627 -0.001907 -0.000358 97.122681 -29.374613 81.905037 761.455688
23 761.455627 -0.001907 -0.000358 97.682884 -31.036818 80.758354 761.455688
[R_Leg02]
21 1441.140625 0.000000 -0.000238 -1.220429 -0.593231 -141.057159 1441.140625
22 1441.140625 0.000000 -0.000238 -1.236553 -0.615862 -142.464859 1441.140625
23 1441.140625 0.000000 -0.000238 -1.262213 -0.646855 -144.218384 1441.140625
[R_Leg03]
21 1686.963989 0.000954 0.001431 0.120938 -0.076158 143.167236 1686.963989
22 1686.963989 0.000954 0.001431 0.120780 -0.076408 143.404434 1686.963989
23 1686.963989 0.000954 0.001431 0.122617 -0.077847 143.768494 1686.963989
[R_Foot]
21 3041.560059 -30.531288 -11.204481 -13.685831 -25.216646 56.192047 3041.734131
22 3041.560059 -30.531288 -11.204481 -13.984818 -25.211483 56.891003 3041.734131
23 3041.560059 -30.531288 -11.204481 -14.283689 -25.203012 57.589859 3041.734131
[planeAlignerRight]
21 -0.635147 -812.270569 -0.364304 0.000000 -89.960434 -90.005180 812.270874
22 -0.635147 -812.270569 -0.364304 0.000000 -89.960434 -90.005180 812.270874
23 -0.635147 -812.270569 -0.364304 0.000000 -89.960434 -90.005180 812.270874
[R_Toe1_01]
21 -188.383347 -224.864899 21.052242 58.204380 26.473459 -166.996918 294.101532
22 -188.383347 -224.864899 21.052242 58.204399 26.473505 -166.996872 294.101532
23 -188.383347 -224.864899 21.052242 58.204414 26.473547 -166.996841 294.101532
[R_Toe2_01]
21 200.637817 -220.002121 -148.787384 -55.994591 39.712746 -29.524965 332.857574
22 200.637817 -220.002121 -148.787384 -55.994591 39.712746 -29.524965 332.857574
23 200.637817 -220.002121 -148.787384 -55.994579 39.712738 -29.524954 332.857574
[R_Toe3_01]
21 188.606735 -220.092957 191.126343 -53.843811 11.158747 -73.289009 347.192566
22 188.606735 -220.092957 191.126343 -53.843811 11.158775 -73.288963 347.192566
23 188.606735 -220.092957 191.126343 -53.843800 11.158802 -73.288902 347.192566
[planeLockWeightRight]
21 -0.000477 0.000000 0.000000 -0.011823 -0.004379 -0.000027 0.000477
22 -0.000477 0.000000 0.000000 -0.011823 -0.004379 -0.000027 0.000477
23 -0.000477 0.000000 0.000000 -0.011823 -0.004379 -0.000027 0.000477
[R_Toe1_02]
21 413.762085 0.000477 -0.000119 0.000006 -25.434675 -0.000005 413.762085
22 413.762085 0.000477 -0.000119 0.000006 -25.434675 -0.000005 413.762085
23 413.762085 0.000477 -0.000119 0.000006 -25.434675 -0.000005 413.762085
[R_Toe1_03]
21 464.317810 0.000000 0.001088 0.003184 46.741905 0.003184 464.317810
22 464.317810 0.000000 0.001088 0.003184 46.741856 0.003184 464.317810
23 464.317810 0.000000 0.001088 0.003184 46.741791 0.003184 464.317810
[R_Toe2_02]
21 342.234741 -0.000954 0.000238 0.001235 -53.660004 0.001235 342.234741
22 342.234741 -0.000954 0.000238 0.001235 -53.660015 0.001235 342.234741
23 342.234741 -0.000954 0.000238 0.001235 -53.660004 0.001235 342.234741
[R_Toe2_03]
21 420.210846 0.000715 -0.000268 -0.003602 51.671585 0.000100 420.210846
22 420.210846 0.000715 -0.000268 -0.003602 51.671577 0.000100 420.210846
23 420.210846 0.000715 -0.000268 -0.003602 51.671577 0.000100 420.210846
[R_Toe3_02]
21 329.270355 -0.000477 -0.000954 -0.002373 -66.445045 -0.002373 329.270355
22 329.270355 -0.000477 -0.000954 -0.002373 -66.445053 -0.002373 329.270355
23 329.270355 -0.000477 -0.000954 -0.002373 -66.445045 -0.002373 329.270355
[R_Toe3_03]
21 439.137939 0.000238 0.001431 0.005869 66.928535 0.005869 439.137939
22 439.137939 0.000238 0.001431 0.005869 66.928558 0.005869 439.137939
23 439.137939 0.000238 0.001431 0.005869 66.928558 0.005869 439.137939
[Rear_Leg02]
21 1162.777710 -0.029802 0.005960 -4.154148 7.105322 -99.728638 1162.777710
22 1162.777710 -0.029802 0.005960 -4.076777 7.143759 -99.139442 1162.777710
23 1162.777710 -0.029802 0.005960 -3.952146 7.213909 -98.171188 1162.777710
[Rear_Leg03]
21 607.192505 -0.013351 -0.073195 0.010360 -0.005370 71.151833 607.192505
22 607.192505 -0.013351 -0.073195 0.010367 -0.005356 71.002708 607.192505
23 607.192505 -0.013351 -0.073195 0.010385 -0.005321 70.617325 607.192505
[Rear_Leg04]
21 995.874512 -0.020504 -0.011921 -0.041124 -0.016668 73.235771 995.874573
22 995.874512 -0.020504 -0.011921 -0.041058 -0.016831 72.780464 995.874573
23 995.874512 -0.020504 -0.011921 -0.040948 -0.017096 72.038841 995.874573
[Rear_Foot]
21 3096.176270 -0.067472 -0.041425 91.972321 83.179359 -78.639702 3096.176270
22 3096.176270 -0.067472 -0.041425 93.895828 83.148598 -76.911179 3096.176270
23 3096.176270 -0.067472 -0.041425 95.801170 83.110863 -75.200645 3096.176270
[planeAlignerCenter]
21 0.350077 0.966311 -838.790894 0.000009 0.000003 -179.999985 838.791565
22 0.350077 0.966311 -838.790894 0.000009 0.000003 -179.999985 838.791565
23 0.350077 0.966311 -838.790894 0.000009 0.000003 -179.999985 838.791565
[Rear_Toe1_01]
21 0.653352 83.966492 -371.173737 5.377059 30.463583 103.596207 380.553192
22 0.653352 83.966492 -371.173737 5.376914 30.463678 103.595627 380.553192
23 0.653352 83.966492 -371.173737 5.376768 30.463772 103.595047 380.553192
[Rear_Toe2_01]
21 178.200760 -294.826019 -362.060547 -8.740553 22.952032 -73.387749 499.765686
22 178.200760 -294.826019 -362.060547 -8.740521 22.952078 -73.387245 499.765686
23 178.200760 -294.826019 -362.060547 -8.740493 22.952124 -73.386749 499.765686
[Rear_Toe3_01]
21 -153.359680 -308.780914 -362.060852 3.773664 19.496332 -119.570824 499.952881
22 -153.359680 -308.780914 -362.060852 3.773718 19.496305 -119.570755 499.952881
23 -153.359680 -308.780914 -362.060852 3.773773 19.496281 -119.570702 499.952881
[planeLockWeightCenter]
21 -0.000062 0.000238 0.000000 -0.011814 -0.004373 -0.000015 0.000246
22 -0.000062 0.000238 0.000000 -0.011814 -0.004373 -0.000015 0.000246
23 -0.000062 0.000238 0.000000 -0.011814 -0.004373 -0.000015 0.000246
[Rear_Toe1_02]
21 379.707825 0.194073 0.000477 -0.000338 -32.982067 0.006988 379.707855
22 379.707825 0.194073 0.000477 -0.000338 -32.982975 0.006988 379.707855
23 379.707825 0.194073 0.000477 -0.000338 -32.983868 0.006988 379.707855
[Rear_Toe1_03]
21 500.129700 0.165701 0.000119 -0.004070 60.571510 -0.000455 500.129761
22 500.129700 0.165701 0.000119 -0.004070 60.571682 -0.000455 500.129761
23 500.129700 0.165701 0.000119 -0.004070 60.571838 -0.000455 500.129761
[Rear_Toe2_02]
21 340.494507 0.000238 -0.000954 0.001179 -79.094414 0.001179 340.494507
22 340.494507 0.000238 -0.000954 0.001179 -79.094398 0.001179 340.494507
23 340.494507 0.000238 -0.000954 0.001179 -79.094398 0.001179 340.494507
[Rear_Toe2_03]
21 433.103577 0.000000 0.000238 0.031673 85.752777 0.031673 433.103546
22 433.103577 0.000000 0.000238 0.031673 85.752914 0.031673 433.103546
23 433.103577 0.000000 0.000238 0.031673 85.752777 0.031673 433.103546
[Rear_Toe3_02]
21 340.494141 -0.000358 -0.000477 -0.002471 -50.096054 -0.002471 340.494171
22 340.494141 -0.000358 -0.000477 -0.002471 -50.096046 -0.002471 340.494171
23 340.494141 -0.000358 -0.000477 -0.002471 -50.096046 -0.002471 340.494171
[Rear_Toe3_03]
21 433.103577 0.001431 -0.000238 0.000412 44.442543 -0.003381 433.103546
22 433.103577 0.001431 -0.000238 0.000412 44.442593 -0.003381 433.103546
23 433.103577 0.001431 -0.000238 0.000412 44.442646 -0.003381 433.103546
[Back_Bone]
21 1312.175781 -701.934692 0.000954 0.041696 0.000750 -85.608566 1488.125488
22 1312.175781 -701.934692 0.000954 0.041529 0.000757 -85.609459 1488.125488
23 1312.175781 -701.934692 0.000954 0.041363 0.000764 -85.610336 1488.125488
[Head]
21 1406.159424 809.709290 0.001431 -0.050570 11.381069 42.527111 1622.625488
22 1406.159424 809.709290 0.001431 -0.050571 11.381069 42.527111 1622.625488
23 1406.159424 809.709290 0.001431 -0.050571 11.381069 42.527111 1622.625488
[Motor_Bone]
21 1158.364380 -417.834747 0.000477 -0.000105 0.000046 -105.985291 1231.419434
22 1158.364380 -417.834747 0.000477 -0.000105 0.000046 -105.985291 1231.419434
23 1158.364380 -417.834747 0.000477 -0.000105 0.000046 -105.985291 1231.419434
[Ping_Mechanism]
21 1248.871704 -448.374634 -29.034836 0.000103 -0.000053 82.120995 1327.239014
22 1253.111816 -449.480896 -27.597853 0.000103 -0.000053 82.120995 1331.571899
23 1259.025024 -451.085327 -22.806744 0.000103 -0.000053 82.120995 1337.588135
[BN_LookIK]
21 193.241119 1380.371704 -0.002861 0.000000 89.965736 -31.038179 1393.832153
22 193.241119 1380.371704 -0.002861 0.000000 89.965736 -31.038179 1393.832153
23 193.241119 1380.371704 -0.002861 0.000000 89.965736 -31.038179 1393.832153
[bottomMouth]
21 -435.092926 615.759399 -0.000954 -0.000022 0.000016 73.527184 753.966492
22 -435.092926 615.759399 -0.000954 -0.000022 0.000016 73.527184 753.966492
23 -435.092926 615.759399 -0.000954 -0.000022 0.000016 73.527184 753.966492
[L_Mouth01]
21 554.440979 7.658243 838.222046 150.204178 23.759130 109.605339 1005.027161
22 554.440979 7.658243 838.222046 150.204178 23.759130 109.605339 1005.027161
23 554.440979 7.658243 838.222046 150.204178 23.759130 109.605339 1005.027161
[L_mouthFront]
21 551.629089 934.514771 339.150421 0.000081 2.804060 79.119301 1136.941284
22 551.629089 934.514771 339.150421 0.000081 2.804060 79.119301 1136.941284
23 551.629089 934.514771 339.150421 0.000081 2.804060 79.119301 1136.941284
[mouthGun]
21 55.332661 1627.420898 0.000000 0.000023 0.000009 -11.038128 1628.361328
22 55.332661 1627.420898 0.000000 0.000023 0.000009 -11.038128 1628.361328
23 55.332661 1627.420898 0.000000 0.000023 0.000009 -11.038128 1628.361328
[R_Mouth01]
21 554.442383 7.659197 -838.223938 29.795891 -23.759109 109.605331 1005.029541
22 554.442383 7.659197 -838.223938 29.795891 -23.759109 109.605331 1005.029541
23 554.442383 7.659197 -838.223938 29.795891 -23.759109 109.605331 1005.029541
[R_mouthFront]
21 551.629089 934.514282 -339.151367 0.000029 -2.803930 79.119133 1136.941162
22 551.629089 934.514282 -339.151367 0.000029 -2.803930 79.119133 1136.941162
23 551.629089 934.514282 -339.151367 0.000029 -2.803930 79.119133 1136.941162
[TopMouth]
21 461.269867 -56.106091 -0.008583 -0.000059 -0.000268 92.025169 464.669525
22 461.269867 -56.106091 -0.008583 -0.000059 -0.000268 92.025169 464.669525
23 461.269867 -56.106091 -0.008583 -0.000059 -0.000268 92.025169 464.669525
[weapon_bone]
21 -987.239868 1448.372803 0.001431 0.000000 89.965736 -31.038221 1752.833740
22 -987.239868 1448.372803 0.001431 0.000000 89.965736 -31.038221 1752.833740
23 -987.239868 1448.372803 0.001431 0.000000 89.965736 -31.038221 1752.833740
